# xmcd CD database file
#
# Track frame offsets:
#	150
#	14070
#	29519
#	53199
#	65659
#	75596
#	95359
#	109645
#	123029
#	136858
#	148568
#	160588
#	177201
#	192511
#
# Disc length: 2727 seconds
#
# Revision: 0
# Processed by: cddbd v1.5.2PL0 Copyright (c) Steve Scherf et al.
# Submitted via: CDex 1.79
#
DISCID=b80aa50e
DTITLE=Varios - Blues Vol.2
DYEAR=1900
DGENRE=Blues
TTITLE0=I've Got A Right To Cry
TTITLE1=Cleanhead Blues
TTITLE2=Saturday Night Fish Frey
TTITLE3=Rocking Chair Blues
TTITLE4=Louie, Louie
TTITLE5=Nothin' From Nothin' Blues
TTITLE6=Fannie Mae
TTITLE7=Hush
TTITLE8=You Better Watch Yourself
TTITLE9=Walkin' And Talkin'
TTITLE10=C.C.Rider
TTITLE11=Don't Forget To Close The Door
TTITLE12=Going Back To L.A.
TTITLE13=Did You Ever Love A Woman
EXTD=
EXTT0=
EXTT1=
EXTT2=
EXTT3=
EXTT4=
EXTT5=
EXTT6=
EXTT7=
EXTT8=
EXTT9=
EXTT10=
EXTT11=
EXTT12=
EXTT13=
PLAYORDER=
